<?xml version="1.0" standalone="no"?>
<!DOCTYPE svg PUBLIC "-//W3C//DTD SVG 20010904//EN"
 "http://www.w3.org/TR/2001/REC-SVG-20010904/DTD/svg10.dtd">
<svg version="1.0" xmlns="http://www.w3.org/2000/svg"
 width="1720.000000pt" height="1080.000000pt" viewBox="0 0 1720.000000 1080.000000"
 preserveAspectRatio="xMidYMid meet">
<metadata>
Created by potrace 1.12, written by Peter Selinger 2001-2015
</metadata>
<g transform="translate(0.000000,1080.000000) scale(0.100000,-0.100000)"
fill="#2666b4" stroke="none">
<path d="M15152 10786 c-220 -72 -259 -348 -66 -464 l44 -27 0 -180 c0 -206
-15 -804 -30 -1200 -33 -880 -78 -1363 -135 -1452 -8 -12 -29 -24 -47 -28
-126 -28 -475 -196 -663 -320 -284 -188 -535 -594 -742 -1200 -123 -361 -216
-713 -358 -1355 -53 -239 -97 -439 -99 -445 -9 -29 -146 282 -405 923 -353
874 -528 1247 -799 1712 -367 630 -841 1186 -1307 1537 -741 556 -1774 907
-2920 994 -198 14 -700 15 -895 0 -1586 -120 -2875 -764 -3679 -1836 -296
-394 -513 -823 -710 -1399 -192 -563 -300 -1062 -347 -1601 -21 -241 -15 -768
10 -975 51 -418 150 -815 290 -1170 50 -126 199 -431 269 -550 30 -52 54 -96
53 -97 0 -1 -368 -6 -815 -12 -769 -11 -819 -13 -895 -32 -163 -42 -373 -136
-524 -236 -105 -69 -250 -207 -302 -287 -166 -251 -62 -474 280 -603 261 -97
527 -135 1127 -158 494 -19 762 -32 1998 -100 994 -54 1722 -91 2375 -120
4467 -196 7093 -52 8085 442 110 55 366 224 495 327 478 385 862 861 1138
1412 172 344 294 714 353 1071 19 112 23 178 24 348 0 116 -4 257 -9 315 -10
123 1 209 41 310 69 175 161 288 558 685 336 335 402 411 498 578 164 284 201
613 101 927 -89 283 -312 544 -649 761 -174 112 -165 100 -165 216 0 289 162
1319 408 2608 l28 150 40 11 c136 40 213 131 214 255 1 232 -310 344 -488 175
-54 -50 -76 -101 -76 -176 0 -90 37 -160 112 -212 l23 -16 -111 -498 c-297
-1340 -509 -2196 -568 -2298 -10 -16 -31 -34 -47 -39 -17 -6 -125 -11 -240
-11 -283 -1 -260 -19 -269 211 -10 259 -24 1134 -32 1933 l-7 695 35 13 c57
20 115 68 145 119 23 40 28 59 28 118 0 107 -52 188 -153 236 -56 27 -160 34
-220 15z"/>
</g>
</svg>
